PathFileType	4	(X/Y/Z)	33_2_18_p0_0-504.trc
DataRate	CameraRate	NumFrames	NumMarkers	Units	OrigDataRate	OrigDataStartFrame	OrigNumFrames
60.0	60.0	6	27	m	60.0	378	505
Frame#	Time	RHip			RKnee			RAnkle			RBigToe			RSmallToe			RHeel			LHip			LKnee			LAnkle			LBigToe			LSmallToe			LHeel			Neck			Head			Nose			RShoulder			RElbow			RWrist			RThumb			RIndex			RPinky			LShoulder			LElbow			LWrist			LThumb			LIndex			LPinky			
		X1	Y1	Z1	X2	Y2	Z2	X3	Y3	Z3	X4	Y4	Z4	X5	Y5	Z5	X6	Y6	Z6	X7	Y7	Z7	X8	Y8	Z8	X9	Y9	Z9	X10	Y10	Z10	X11	Y11	Z11	X12	Y12	Z12	X13	Y13	Z13	X14	Y14	Z14	X15	Y15	Z15	X16	Y16	Z16	X17	Y17	Z17	X18	Y18	Z18	X19	Y19	Z19	X20	Y20	Z20	X21	Y21	Z21	X22	Y22	Z22	X23	Y23	Z23	X24	Y24	Z24	X25	Y25	Z25	X26	Y26	Z26	X27	Y27	Z27	
378	6.3	0.2949846354739874	0.2511044488823795	0.17820605972748235	0.2633139932471535	0.48991030951272746	0.5531728293492383	0.24771863532714453	0.7148945327649358	0.931422969893118	0.25225743966449865	0.5894834647528416	1.0077086209279025	0.31693519024411065	0.6056731828471064	0.9995865772461646	0.22238832780234316	0.8616223309226989	0.9866239882042457	0.0787404183035177	0.3021232570145894	0.1665755754116978	0.06455068198560834	0.5394711654177595	0.5447627195516664	0.05408873098928536	0.7904611016460235	0.9325138465445577	0.08366310268458615	0.567112660984573	0.9870425407573516	0.02573189280906304	0.6597202191919975	0.9942321933394055	0.07781121390756923	0.858118011594108	0.9676201628653591	0.23263912580241292	-0.015508725515512014	-0.35554692359912565	0.26019881486168805	-0.19219110798579989	-0.5317141960362578	0.25568831732766245	-0.17860729563480354	-0.39499030199830937	0.39545075695477383	0.016580630700529325	-0.2586852773960234	0.4015246142450944	0.1203391271432996	-0.04247436230109202	0.37928791359578784	-0.08638105451707867	0.04402929452603674	0.3325472776022925	-0.22110172544077766	0.07583010884057544	0.33708510449532486	-0.20669812153974382	0.09889539918238885	0.3416820882703801	-0.13702127619998827	0.11606524012417947	0.05994657044964435	0.01591612497017216	-0.28421024918115406	0.01624099589018292	0.11404223222668736	-0.06700082269209198	0.07905346439768388	-0.06233362653514919	0.06920072071239074	0.1435166961390505	-0.21014157140853323	0.10584794720433008	0.13220587919466645	-0.23392891205553212	0.1588210585398823	0.12365731225842237	-0.12133967797591641	0.16116913374938072
379	6.316666666666666	0.2943518322219071	0.24820355989466827	0.17507090343804535	0.26328935447996465	0.4898865883594915	0.5530780184080099	0.24768941050556695	0.7150171393565843	0.9313889158219019	0.2522631827108562	0.5894880989798552	1.0079196961245	0.3169511978634692	0.6057004267422285	0.9997209192291507	0.22238581289312342	0.8617173588191454	0.986541868902075	0.07816675827269157	0.30257405762128636	0.1709510416310801	0.06425448526365787	0.5383791291128812	0.5409664947883476	0.05349925635058833	0.7864314854527237	0.9280370090644856	0.08371061803307801	0.5671093941568461	0.9870019617479164	0.02583392448879712	0.6594798840689012	0.9941096094583339	0.07734536215508303	0.8574980746182477	0.9631226346847852	0.23260809479035155	-0.015330133246382304	-0.3556083679736838	0.2601874995471692	-0.1920820431429975	-0.5317582913054518	0.2556371739314758	-0.17851284910611023	-0.39507025034272186	0.3954305083070305	0.01672602097873172	-0.25878454704681203	0.3972946549136337	0.13305417917892176	-0.04602375447444666	0.38311154355497395	-0.08569412741948064	0.043948227322142146	0.33650658464129507	-0.21999631466824754	0.07502873476123038	0.33833353054911214	-0.2075384658179884	0.09807394552645567	0.34818784312665235	-0.1468692069743376	0.12058218069902915	0.05644004500604717	0.03649352668569195	-0.29511746970093866	0.015368697847753816	0.11365775127081111	-0.06692690638098232	0.07355060135305964	-0.05169829576485668	0.06664952609944536	0.13695264515307654	-0.20764589885120352	0.10830705327917561	0.13515051477364154	-0.2309807570418985	0.16109636031069866	0.11691010155116818	-0.12231007729999552	0.16141354141194578
380	6.333333333333333	0.2942484741666104	0.24829605469304256	0.17523876207980044	0.26320297122875685	0.4900694015915419	0.5529508413299741	0.24772491394112656	0.7148253926942081	0.9313280358082128	0.2501614090350013	0.57501546852213	1.0064809457467214	0.3169333199338809	0.6055128840247147	0.9995744674635149	0.22238622560227053	0.8616162770861133	0.9866389856015143	0.07807877569390186	0.3014715609788487	0.16678450539147954	0.06421041186298775	0.5384044300983499	0.5407919459116841	0.05353641597237307	0.7863821830533531	0.92800012102597	0.08361166242048655	0.5673707448015393	0.9870230035661984	0.025717854111773016	0.6597964487822855	0.9942736681693174	0.07743735101148747	0.8574333676811867	0.9629794066733157	0.2325234573267313	-0.01523017717350009	-0.35565547815838955	0.26015326956235996	-0.1919958756432123	-0.5319414827273939	0.255541212475526	-0.17835696177373053	-0.39511226496179847	0.3956848550174218	0.018715023008172623	-0.2556971098299751	0.40192304881044155	0.13485454250885628	-0.046830588325912775	0.3828121019495158	-0.08356107749776001	0.0498916124379155	0.351071915810348	-0.2282718680862341	0.06966828411477612	0.35671695929125385	-0.2050537882951099	0.09316064826536825	0.35215420913672296	-0.1458468348245687	0.11840071155780652	0.0561508762874595	0.03792980893335582	-0.2924704889114892	0.01572439150735858	0.1134602966022536	-0.07034514940271852	0.06958803803199248	-0.05552955503952458	0.06381646773262371	0.13298981518936104	-0.20827648313912958	0.10503697939164339	0.13261896317025862	-0.24100191989569056	0.1600818816428766	0.11105599955741602	-0.14764237204029773	0.1668598138548838
381	6.35	0.30177392958706606	0.24588493765758446	0.17551992605765027	0.2625580271557111	0.48708403044943765	0.5494998153097574	0.24771710239692918	0.7148780500452089	0.9313681221143245	0.2552854153300937	0.5585362606465664	1.0048912300933615	0.31690473684619924	0.6054817278559528	0.9996889462703604	0.22240115101711505	0.8617371992959448	0.9866922878624536	0.07824086489236075	0.29993570551815296	0.1675912393072022	0.06453181956727475	0.5394932860857966	0.5446616661761968	0.05348562134301915	0.7865462327190786	0.9279960937445654	0.08360520243746358	0.5673802977696673	0.9869820523247502	0.025360016643033154	0.6595009754842673	0.9903941739807305	0.07733891338856005	0.8575523695048686	0.9630727534270925	0.2324407445515262	-0.015123753542638877	-0.3556392392025636	0.2601514867817278	-0.19201648510447544	-0.5320529750884262	0.25313281621174316	-0.18930156228117484	-0.39364291890737885	0.3954443087720182	0.018300739748690037	-0.2555774877627034	0.4015234809545216	0.13586199360806983	-0.043397128500093585	0.39110214311855224	-0.08096748887439086	0.04821925473251561	0.3579304832210443	-0.21584691291030567	0.0710453834251451	0.3639984650704493	-0.19081763280761338	0.09672715174494007	0.37385407026826967	-0.1425288343646781	0.11655770327414966	0.05612084003344664	0.03797893658241432	-0.29241000294296365	0.014992716694442305	0.11404950513351748	-0.06661755111237379	0.06379431672407743	-0.046568883787711984	0.058523144889506655	0.12066209079900689	-0.18125128455636247	0.09817154672751022	0.11766548181698148	-0.24092932197592956	0.15062591547574755	0.0949105401145689	-0.1447199015900687	0.1661928325096984
382	6.366666666666666	0.2991272845637592	0.23437993916716673	0.17758758492676402	0.26313501573571996	0.4901118657003978	0.5529757738920806	0.24770207372474318	0.7149692591336606	0.9313642079974269	0.25533528841328196	0.5584826089709933	1.0046764698117971	0.3169405892342607	0.6055055851674803	0.9995048171318549	0.22239979590231448	0.8618908281109869	0.9867789677840382	0.07453474916459693	0.3025219866734992	0.16288027222169993	0.06413708056375142	0.5383587182559519	0.5408226637579333	0.05343611435518381	0.7866140026513303	0.927984895174399	0.0836511001454818	0.5675028154314593	0.987048638562683	0.025350691983737093	0.6595959902913886	0.9903112470475426	0.07066773301638239	0.8773363615090738	0.9647817117091392	0.22776669230894447	-0.004332223420317877	-0.3598630517174594	0.2601019860134291	-0.19196935167446333	-0.5321818892337833	0.2530001683822918	-0.1894255717060723	-0.3935467454997325	0.39537974972753837	0.018361496552766764	-0.25551554439275154	0.4014411337181836	0.1360725349277549	-0.043112423891310744	0.4098239272917945	-0.08025156494002075	0.04421731367504591	0.36327957563058333	-0.2249661589865918	0.07759992092870362	0.375562865068742	-0.21045706540204567	0.10176261284277259	0.3811176691820766	-0.16032120681683293	0.12367681533772322	0.05597360675361324	0.038163072986813165	-0.29250781613233384	0.018350368888225378	0.11785370043491226	-0.0678118409611508	0.060376013898050744	-0.048726865527940644	0.058933851989968686	0.11849244275873874	-0.19117287448569062	0.10072670986545207	0.11268799790875766	-0.23411528929752365	0.1423314572383287	0.08737780158478674	-0.14995999721674957	0.1674989101032854
383	6.383333333333334	0.2992637882617625	0.23437241652993196	0.17767140801011766	0.2623095054614456	0.4862266229974767	0.5453216869025934	0.2520182300346662	0.7166757670648756	0.9309994484815302	0.2574538690620358	0.5729364320590613	1.0060124696433976	0.3196612290043561	0.6194668749965635	1.0005908309741143	0.22238787851512035	0.861869545751686	0.9868087808683712	0.08021295654003156	0.28715396961553646	0.16110354333125576	0.06410915580008145	0.5383802555719577	0.5406028611351557	0.053456808964771604	0.7864715421208945	0.927953021217234	0.0837832923707414	0.5671939476424758	0.9870426149016518	0.025809595635487792	0.6596727020543975	0.9940751901144816	0.07064913246495423	0.8774169162876887	0.9647823358400942	0.22381879264161575	-0.005979411225829651	-0.35907369287765895	0.25997987690846847	-0.1918520538244946	-0.532378407789221	0.24972632098986755	-0.18770848525219788	-0.38750490396063336	0.39532433829018276	0.01836555583633525	-0.25549567635485093	0.4011237691383249	0.13661355767662625	-0.04023677608424663	0.41459713729660014	-0.07647387740402302	0.047244909864249736	0.38000706537909834	-0.20987814078534864	0.08598319674235091	0.39899290360712314	-0.21865492293974947	0.1106577680746132	0.39175142404444324	-0.1610768525660121	0.12393045334077865	0.05461883784039743	0.02684284131793316	-0.28807413798508524	0.01278257373030727	0.10319598089180596	-0.06368961500208493	0.053054244758473715	-0.048337561019267394	0.059139416764636084	0.11263002721891394	-0.2016528285997253	0.10588102836093946	0.10220384627073871	-0.21304417252798438	0.14389148550597786	0.08064198030827655	-0.15064910955535799	0.16528379794019335
